<svg xmlns="http://www.w3.org/2000/svg" version="1.1" xmlns:xlink="http://www.w3.org/1999/xlink" xmlns:svgjs="http://svgjs.dev/svgjs" width="1500" height="401" viewBox="0 0 1500 401"><g transform="matrix(1,0,0,1,-0.9090909090909918,-0.761413182465418)"><svg viewBox="0 0 396 106" data-background-color="#4a5d5e" preserveAspectRatio="xMidYMid meet" height="401" width="1500" xmlns="http://www.w3.org/2000/svg" xmlns:xlink="http://www.w3.org/1999/xlink"><g id="tight-bounds" transform="matrix(1,0,0,1,0.2400000000000091,0.20127131506566798)"><svg viewBox="0 0 395.52 105.59745736986868" height="105.59745736986868" width="395.52"><g><svg viewBox="0 0 557.9024934380795 148.95096270067518" height="105.59745736986868" width="395.52"><g transform="matrix(1,0,0,1,162.38249343807954,46.02800948237059)"><svg viewBox="0 0 395.52 56.894943735933985" height="56.894943735933985" width="395.52"><g id="textblocktransform"><svg viewBox="0 0 395.52 56.894943735933985" height="56.894943735933985" width="395.52" id="textblock"><g><svg viewBox="0 0 395.52 56.894943735933985" height="56.894943735933985" width="395.52"><g transform="matrix(1,0,0,1,0,0)"><svg width="395.52" viewBox="1.71 -36.84 260.33000000000004 37.45" height="56.894943735933985" data-palette-color="#d2dbc8"><path d="M21.61-4.71L21.61-4.71 21.61-1.86Q19.92-0.95 17.81-0.17 15.7 0.61 13.16 0.61L13.16 0.61Q9.67 0.61 7.09-1.03 4.52-2.66 3.11-5.48 1.71-8.3 1.71-11.89L1.71-11.89Q1.71-16.09 3.38-18.95 5.05-21.8 7.8-23.25 10.55-24.71 13.75-24.71L13.75-24.71Q17.04-24.71 19.27-23.43 21.51-22.14 21.51-19.7L21.51-19.7Q21.51-18.24 20.59-17.49 19.68-16.75 18.55-16.75L18.55-16.75Q17.72-16.75 17.11-17.03 16.5-17.31 16.04-17.6L16.04-17.6 16.04-21.95Q14.89-22.61 13.94-22.61L13.94-22.61Q11.72-22.61 10.12-21.3 8.52-20 7.67-17.72 6.81-15.45 6.81-12.55L6.81-12.55Q6.81-9.79 7.74-7.51 8.67-5.22 10.51-3.88 12.35-2.54 15.09-2.54L15.09-2.54Q16.82-2.54 18.41-3.1 20-3.66 21.61-4.71ZM48.78-12.01L48.78-12.01Q48.78-8.47 47.31-5.6 45.85-2.73 43.17-1.06 40.5 0.61 36.84 0.61L36.84 0.61Q33.2 0.61 30.54-1.05 27.88-2.71 26.44-5.57 25-8.42 25-12.01L25-12.01Q25-15.58 26.45-18.46 27.9-21.34 30.6-23.02 33.3-24.71 36.98-24.71L36.98-24.71Q40.72-24.71 43.36-23 45.99-21.29 47.39-18.41 48.78-15.53 48.78-12.01ZM43.58-12.06L43.58-12.06Q43.58-14.79 42.86-17.16 42.14-19.53 40.66-21 39.18-22.46 36.94-22.46L36.94-22.46Q34.62-22.46 33.14-21 31.66-19.53 30.95-17.16 30.25-14.79 30.25-12.06L30.25-12.06Q30.25-9.35 30.97-6.97 31.69-4.59 33.16-3.13 34.64-1.66 36.89-1.66L36.89-1.66Q39.18-1.66 40.66-3.13 42.14-4.59 42.86-6.96 43.58-9.33 43.58-12.06ZM77.39-1.95L77.39 0 69.53 0 69.53-2.66Q67.82-1.34 65.89-0.37 63.96 0.61 61.79 0.61L61.79 0.61Q59.27 0.61 57.45-0.45 55.63-1.51 54.47-3.27 53.32-5.03 52.75-7.15 52.19-9.28 52.19-11.4L52.19-11.4Q52.19-14.79 53.58-17.83 54.98-20.87 57.81-22.79 60.64-24.71 64.94-24.71L64.94-24.71Q66.13-24.71 67.54-24.48 68.94-24.24 69.53-24.1L69.53-24.1 69.53-33.25 65.74-33.25 65.74-34.91 72.19-36.84 74.19-36.84 74.19-3.2Q74.19-2.17 75.24-2.1L75.24-2.1 77.39-1.95ZM69.53-4.54L69.53-4.54 69.53-21.56Q68.89-21.78 67.63-22.03 66.38-22.29 65.28-22.29L65.28-22.29Q61.57-22.29 59.35-19.54 57.12-16.8 57.12-12.26L57.12-12.26Q57.12-8.18 59.03-5.49 60.93-2.81 64.37-2.81L64.37-2.81Q65.89-2.81 67.22-3.38 68.55-3.96 69.53-4.54ZM101.48-5.54L101.48-2.49Q99.38-1.2 96.95-0.29 94.52 0.61 91.98 0.61L91.98 0.61Q88.96 0.61 86.31-0.74 83.66-2.1 82.02-4.86 80.39-7.62 80.39-11.79L80.39-11.79Q80.39-15.7 81.9-18.6 83.42-21.51 86.08-23.11 88.74-24.71 92.13-24.71L92.13-24.71Q96.79-24.71 99.14-21.81 101.48-18.92 101.48-14.45L101.48-14.45Q101.48-14.21 101.48-13.81 101.48-13.4 101.43-13.06L101.43-13.06 85.22-13.06Q85.22-11.16 85.62-9.27 86.03-7.37 86.98-5.83 87.93-4.3 89.54-3.37 91.15-2.44 93.57-2.44L93.57-2.44Q95.72-2.44 97.76-3.43 99.8-4.42 101.48-5.54L101.48-5.54ZM85.49-15.31L96.48-15.31 96.48-16.41Q96.48-18.87 95.29-20.56 94.11-22.24 91.62-22.24L91.62-22.24Q89.15-22.24 87.42-20.39 85.69-18.53 85.49-15.31L85.49-15.31ZM145.15-33.84L145.15-33.84Q145.15-32.84 144.65-32.26 144.15-31.69 143.59-31.45 143.03-31.2 142.83-31.15L142.83-31.15Q142.76-31.23 142.07-31.71 141.37-32.2 140.5-32.81 139.64-33.42 138.96-33.9 138.29-34.38 138.24-34.4L138.24-34.4Q137.17-33.84 136.23-32.13 135.29-30.42 135.29-26.9L135.29-26.9 135.29-23.71 141.49-23.71 141.49-21.14 135.29-21.14 135.29-3.2Q135.29-2.73 135.6-2.43 135.9-2.12 136.34-2.1L136.34-2.1 139.29-1.95 139.29 0 127.14 0 127.14-1.95 129.6-2.1Q130.04-2.15 130.35-2.44 130.65-2.73 130.65-3.2L130.65-3.2 130.65-21.14 127.45-21.14 127.45-22.9 130.65-23.8Q130.65-26.27 131.03-27.89 131.41-29.52 132.34-31.3L132.34-31.3Q133.8-34.13 136.11-35.49 138.42-36.84 140.86-36.84L140.86-36.84Q142.98-36.84 144.07-35.95 145.15-35.06 145.15-33.84ZM164.8-5.54L164.8-2.49Q162.7-1.2 160.28-0.29 157.85 0.61 155.31 0.61L155.31 0.61Q152.28 0.61 149.63-0.74 146.98-2.1 145.35-4.86 143.71-7.62 143.71-11.79L143.71-11.79Q143.71-15.7 145.22-18.6 146.74-21.51 149.4-23.11 152.06-24.71 155.45-24.71L155.45-24.71Q160.12-24.71 162.46-21.81 164.8-18.92 164.8-14.45L164.8-14.45Q164.8-14.21 164.8-13.81 164.8-13.4 164.76-13.06L164.76-13.06 148.54-13.06Q148.54-11.16 148.95-9.27 149.35-7.37 150.3-5.83 151.25-4.3 152.87-3.37 154.48-2.44 156.89-2.44L156.89-2.44Q159.04-2.44 161.08-3.43 163.12-4.42 164.8-5.54L164.8-5.54ZM148.81-15.31L159.8-15.31 159.8-16.41Q159.8-18.87 158.62-20.56 157.43-22.24 154.94-22.24L154.94-22.24Q152.48-22.24 150.74-20.39 149.01-18.53 148.81-15.31L148.81-15.31ZM180.01-1.95L180.01 0 167.85 0 167.85-1.95 170.51-2.1Q170.86-2.1 171.23-2.47 171.61-2.83 171.61-3.15L171.61-3.15 171.61-33.25 167.8-33.25 167.8-34.91 174.2-36.84 176.25-36.84 176.25-3.15Q176.25-2.83 176.62-2.47 176.98-2.1 177.3-2.1L177.3-2.1 180.01-1.95ZM194.85-1.95L194.85 0 182.69 0 182.69-1.95 185.36-2.1Q185.7-2.1 186.08-2.47 186.45-2.83 186.45-3.15L186.45-3.15 186.45-33.25 182.65-33.25 182.65-34.91 189.04-36.84 191.09-36.84 191.09-3.15Q191.09-2.83 191.46-2.47 191.83-2.1 192.14-2.1L192.14-2.1 194.85-1.95ZM221.68-12.01L221.68-12.01Q221.68-8.47 220.22-5.6 218.75-2.73 216.08-1.06 213.41 0.61 209.74 0.61L209.74 0.61Q206.11 0.61 203.44-1.05 200.78-2.71 199.34-5.57 197.9-8.42 197.9-12.01L197.9-12.01Q197.9-15.58 199.35-18.46 200.81-21.34 203.51-23.02 206.2-24.71 209.89-24.71L209.89-24.71Q213.62-24.71 216.26-23 218.9-21.29 220.29-18.41 221.68-15.53 221.68-12.01ZM216.48-12.06L216.48-12.06Q216.48-14.79 215.76-17.16 215.04-19.53 213.56-21 212.09-22.46 209.84-22.46L209.84-22.46Q207.52-22.46 206.04-21 204.57-19.53 203.86-17.16 203.15-14.79 203.15-12.06L203.15-12.06Q203.15-9.35 203.87-6.97 204.59-4.59 206.07-3.13 207.55-1.66 209.79-1.66L209.79-1.66Q212.09-1.66 213.56-3.13 215.04-4.59 215.76-6.96 216.48-9.33 216.48-12.06ZM262.04-24.1L262.04-22.14 259.5-21.85 252.64 0 249.1 0 243.19-18.7 236.6 0 233.03 0 226.64-21.85 223.88-22.14 223.88-24.1 234.84-24.1 234.84-22.14 232.49-22Q231.71-21.92 231.71-21.17L231.71-21.17Q231.71-21 231.74-20.9L231.74-20.9 235.89-5.35 242.33-24.1 245.9-24.1 251.68-5.35 256.3-20.9Q256.32-20.97 256.32-21.14L256.32-21.14Q256.32-21.46 256.13-21.72 255.93-21.97 255.59-22L255.59-22 253.3-22.14 253.3-24.1 262.04-24.1Z" opacity="1" transform="matrix(1,0,0,1,0,0)" fill="#d2dbc8" class="wordmark-text-0" data-fill-palette-color="primary" id="text-0"></path></svg></g></svg></g></svg></g></svg></g><g><svg viewBox="0 0 148.95096270067518 148.95096270067518" height="148.95096270067518" width="148.95096270067518"><g><svg xmlns="http://www.w3.org/2000/svg" xmlns:xlink="http://www.w3.org/1999/xlink" version="1.1" x="0" y="0" viewBox="14.61 14.61 70.781 70.781" enable-background="new 0 0 100 100" xml:space="preserve" height="148.95096270067518" width="148.95096270067518" class="icon-icon-0" data-fill-palette-color="accent" id="icon-0"><path d="M42.272 50.423A2.41 2.41 0 1 0 42.272 55.24 2.41 2.41 0 0 0 42.273 50.423M50 50.423A2.41 2.41 0 1 0 50 55.24 2.41 2.41 0 0 0 50 50.423M57.728 50.423A2.41 2.41 0 0 0 57.728 55.242 2.409 2.409 0 1 0 57.728 50.423M35.966 40.072L25.966 50 35.966 59.93 38.514 57.364 31.1 50 38.515 42.639zM64.034 40.072L61.485 42.638 68.9 50 61.485 57.363 64.034 59.929 74.033 50zM50 14.61C30.486 14.61 14.61 30.486 14.61 50S30.486 85.391 50 85.391 85.391 69.515 85.391 50C85.391 30.486 69.515 14.61 50 14.61M50 81.773C32.48 81.773 18.226 67.52 18.226 50S32.48 18.226 50 18.226 81.773 32.48 81.773 50 67.521 81.773 50 81.773" fill="#f8f8ec" data-fill-palette-color="accent"></path></svg></g></svg></g></svg></g><defs></defs></svg><rect width="395.52" height="105.59745736986868" fill="none" stroke="none" visibility="hidden"></rect></g></svg></g></svg>